# xmcd CD database file
#
# Track frame offsets:
#	150
#	22576
#	44307
#	70223
#	96944
#	117096
#	136687
#	157799
#	190660
#	212256
#	236845
#	260047
#	286419
#	305781
#
# Disc length: 4367 seconds
#
# Revision: 0
# Processed by: cddbd v1.5.2PL0 Copyright (c) Steve Scherf et al.
# Submitted via: CDex 1.70beta2
#
DISCID=b8110d0e
DTITLE=Waynawari - The Best Of Waynawari
DYEAR=2008
DGENRE=New Age
TTITLE0=Clouds Of Sunset
TTITLE1=Northem Lights
TTITLE2=Forget Your Sorrows
TTITLE3=Lost Song
TTITLE4=Para Mi Estrellita
TTITLE5=Little Hunter
TTITLE6=Ayame
TTITLE7=Theres Is A Place
TTITLE8=Unforgiven Sunset
TTITLE9=Kuyay Yana Nahui
TTITLE10=The Glen Of Silence
TTITLE11=Lonley Hawk
TTITLE12=Valle Sagrado
TTITLE13=In The Course Of Time
EXTD=YEAR: 2008
EXTT0=
EXTT1=
EXTT2=
EXTT3=
EXTT4=
EXTT5=
EXTT6=
EXTT7=
EXTT8=
EXTT9=
EXTT10=
EXTT11=
EXTT12=
EXTT13=
PLAYORDER=
